<svg xmlns="http://www.w3.org/2000/svg"  viewBox="0 0 64 64" width="64px" height="64px"><linearGradient id="OYgjnOW7uoCw8XUJhIMNva" x1="31.957" x2="32.042" y1="60.068" y2="8.737" gradientTransform="matrix(1 0 0 -1 0 66)" gradientUnits="userSpaceOnUse"><stop offset="0" stop-color="#1a6dff"/><stop offset="1" stop-color="#c822ff"/></linearGradient><path fill="url(#OYgjnOW7uoCw8XUJhIMNva)" d="M32,58C17.663,58,6,46.336,6,32S17.663,6,32,6s26,11.664,26,26S46.337,58,32,58z M32,8	C18.767,8,8,18.767,8,32s10.767,24,24,24s24-10.767,24-24S45.233,8,32,8z"/><linearGradient id="OYgjnOW7uoCw8XUJhIMNvb" x1="2.308" x2="34.879" y1="45.284" y2="45.284" gradientTransform="matrix(1 0 0 -1 0 66)" gradientUnits="userSpaceOnUse"><stop offset="0" stop-color="#6dc7ff"/><stop offset="1" stop-color="#e6abff"/></linearGradient><path fill="url(#OYgjnOW7uoCw8XUJhIMNvb)" d="M2.842,7.199c-0.108,0-0.238,0.018-0.412,0.225C2.31,7.578,2.017,7.951,3.199,9.036	C4.166,9.923,17.025,23.213,20.55,27.249c2.359,2.7,7.546,6.984,11.42,6.984c0.991,0,1.801-0.283,2.473-0.865	c0.469-0.847,0.559-1.785,0.273-2.863c-0.987-3.729-6.123-7.787-9.127-9.468C20.91,18.418,5.253,8.579,4.188,7.817	C3.473,7.306,3.062,7.199,2.842,7.199z"/><linearGradient id="OYgjnOW7uoCw8XUJhIMNvc" x1="28.668" x2="28.668" y1="30.424" y2="13.152" gradientTransform="matrix(1 0 0 -1 0 66)" gradientUnits="userSpaceOnUse"><stop offset="0" stop-color="#6dc7ff"/><stop offset="1" stop-color="#e6abff"/></linearGradient><path fill="url(#OYgjnOW7uoCw8XUJhIMNvc)" d="M41.856,37.809c-16.122,14.382-29.308,0.599-31.351-4.176	c1.208,8.288,6.793,15.704,15.229,18.558c6.372,2.156,16.539,2.106,21.097-6.107L41.856,37.809z"/><linearGradient id="OYgjnOW7uoCw8XUJhIMNvd" x1="18.568" x2="18.653" y1="60.045" y2="8.714" gradientTransform="matrix(1 0 0 -1 0 66)" gradientUnits="userSpaceOnUse"><stop offset="0" stop-color="#1a6dff"/><stop offset="1" stop-color="#c822ff"/></linearGradient><path fill="url(#OYgjnOW7uoCw8XUJhIMNvd)" d="M35.78,30.67c-0.16-0.83-0.5-1.67-0.98-2.5c-1.91-3.31-5.93-6.45-8.72-8.01	C21.5,17.6,5.81,7.75,4.77,7c-0.62-0.44-1.3-0.8-1.93-0.8c-0.42,0-0.83,0.16-1.18,0.58C0.83,7.84,1.58,8.91,2.52,9.77	c0.94,0.87,13.83,14.19,17.28,18.14c2.14,2.44,6.15,5.82,9.85,6.94c0.8,0.24,1.58,0.38,2.32,0.38c0.17,0,0.34-0.01,0.5-0.03	c1.03-0.08,1.96-0.45,2.76-1.19C35.87,32.96,36,31.82,35.78,30.67z M21.3,26.59C18.37,23.23,9,13.5,5.32,9.75	c4.43,2.82,15.89,9.98,19.78,12.16c2.86,1.6,6.08,4.33,7.71,6.85c-0.68,0.38-1.31,0.93-1.84,1.62c-0.63,0.75-1.07,1.57-1.28,2.38	C26.67,31.65,23.2,28.77,21.3,26.59z"/><linearGradient id="OYgjnOW7uoCw8XUJhIMNve" x1="36.919" x2="36.919" y1="35.839" y2="25.942" gradientTransform="matrix(1 0 0 -1 0 66)" gradientUnits="userSpaceOnUse"><stop offset="0" stop-color="#6dc7ff"/><stop offset="1" stop-color="#e6abff"/></linearGradient><path fill="url(#OYgjnOW7uoCw8XUJhIMNve)" d="M42.139,36.694c-0.293-0.762-6.917-6.506-6.917-6.506c-0.905-0.171-1.96,0.486-2.7,1.457	c-0.798,0.925-1.223,2.093-0.869,2.943c0,0,6.987,5.296,7.793,5.426c1.169,0.188,1.027-0.248,2.344-0.851l0,0	C42.108,37.75,42.564,37.799,42.139,36.694z"/><linearGradient id="OYgjnOW7uoCw8XUJhIMNvf" x1="36.919" x2="36.919" y1="35.839" y2="25.942" gradientTransform="matrix(1 0 0 -1 0 66)" gradientUnits="userSpaceOnUse"><stop offset="0" stop-color="#6dc7ff"/><stop offset="1" stop-color="#e6abff"/></linearGradient><path fill="url(#OYgjnOW7uoCw8XUJhIMNvf)" d="M42.139,36.694c-0.293-0.762-6.917-6.506-6.917-6.506c-0.905-0.171-1.96,0.486-2.7,1.457	c-0.798,0.925-1.223,2.093-0.869,2.943c0,0,6.987,5.296,7.793,5.426c1.169,0.188,1.027-0.248,2.344-0.851l0,0	C42.108,37.75,42.564,37.799,42.139,36.694z"/><linearGradient id="OYgjnOW7uoCw8XUJhIMNvg" x1="43.339" x2="43.424" y1="60.087" y2="8.756" gradientTransform="matrix(1 0 0 -1 0 66)" gradientUnits="userSpaceOnUse"><stop offset="0" stop-color="#1a6dff"/><stop offset="1" stop-color="#c822ff"/></linearGradient><path fill="url(#OYgjnOW7uoCw8XUJhIMNvg)" d="M46.815,39.054c-1.597-2.916-4.219-3.467-6.03-2.057c-1.797,1.399-1.955,3.065-1.419,4.72	c1.093,3.376,5.489,5.679,2.785,9.161l0,0C47.356,47.934,48.87,42.806,46.815,39.054z"/></svg>